<mxfile host="app.diagrams.net" modified="2020-08-03T13:00:43.771Z" agent="5.0 (Windows NT 10.0; Win64; x64) AppleWebKit/537.36 (KHTML, like Gecko) Chrome/84.0.4147.105 Safari/537.36" etag="sFXSPyP3Xqn6b_GY6YD9" version="13.5.8" type="github">
  <diagram id="PzUs2nMAP58Bffqi60oG" name="Page-1">
    <mxGraphModel dx="868" dy="488" grid="1" gridSize="10" guides="1" tooltips="1" connect="1" arrows="1" fold="1" page="1" pageScale="1" pageWidth="827" pageHeight="1169" math="0" shadow="0">
      <root>
        <mxCell id="6v2oGXgiuYO1gjxAXr3h-0" />
        <mxCell id="6v2oGXgiuYO1gjxAXr3h-1" parent="6v2oGXgiuYO1gjxAXr3h-0" />
      </root>
    </mxGraphModel>
  </diagram>
</mxfile>
